<svg width="384" height="464" viewBox="0 0 384 464" fill="none" xmlns="http://www.w3.org/2000/svg">
<rect width="384" height="464" rx="16" fill="#008FFC"/>
<g clip-path="url(#clip0_643_240)">
<path d="M276.757 224.554L267.189 241.129L293.267 286.306H241.118L233.521 299.485H320L276.757 224.554Z" fill="white"/>
<path d="M147.683 286.306H90.7329L119.208 236.963L109.646 220.388L64 299.485H155.286L147.683 286.306Z" fill="white"/>
<path d="M162.82 152.446L197.557 96.5839L232.3 152.446H252.561L197.557 64L142.559 152.446H162.82Z" fill="white"/>
<path d="M159.024 217.678C162.622 218.905 166.138 220.572 169.838 221.252C175.261 222.251 180.798 222.823 186.31 223.084C199.591 223.714 212.782 222.779 225.828 220.108C228.154 219.631 230.449 218.995 232.763 218.441C233.069 218.371 233.374 218.32 233.743 218.257C234.067 218.206 234.321 218.537 234.181 218.835C232.458 222.442 230.589 225.698 227.97 228.465C227.519 228.942 226.705 229.133 226.025 229.336C218.745 231.493 211.275 232.79 203.71 232.904C191.968 233.076 180.213 232.796 168.465 232.707C168.369 232.707 168.274 232.746 168.026 232.796C171.059 234.698 174.282 235.709 177.651 236.282C184.682 237.478 191.79 237.535 198.866 237.242C205.675 236.962 212.458 236.059 219.248 235.43C219.648 235.391 220.049 235.36 220.57 235.321C220.875 235.296 221.098 235.608 220.983 235.887C220.837 236.237 220.723 236.517 220.557 236.778C219.025 239.239 217.518 241.72 215.872 244.099C215.497 244.639 214.613 245.034 213.92 245.116C208.993 245.701 204.066 246.49 199.126 246.636C190.798 246.891 182.457 246.719 174.123 246.719C174.123 246.719 174.116 246.719 174.11 246.719C173.697 246.719 173.544 247.266 173.9 247.482C176.704 249.187 179.571 249.956 182.559 250.255C191.39 251.14 200.233 251.038 209.063 250.154C209.184 250.141 209.305 250.141 209.451 250.141C209.781 250.141 209.972 250.516 209.781 250.79C207.779 253.639 205.891 256.342 203.971 259.077C203.907 259.173 203.806 259.23 203.691 259.249C195.865 260.438 187.963 259.879 179.768 260.019C179.355 260.025 179.215 260.578 179.571 260.788C186.297 264.712 193.519 263.498 200.716 263.529C201.002 263.529 201.199 263.828 201.091 264.095C200.099 266.557 199.114 269.006 198.02 271.728C197.957 271.88 197.804 271.989 197.639 271.989H183.449C183.252 272.574 183.258 272.561 183.061 273.146C187.111 276.136 191.981 275.423 196.812 275.506C197.048 275.506 197.232 275.716 197.213 275.957C197.016 278.164 196.825 280.327 196.609 282.744C196.59 282.935 196.444 283.094 196.253 283.119C194.034 283.393 191.828 283.673 189.648 283.94C189.311 283.984 189.177 284.385 189.406 284.633C190.455 285.778 192.515 286.153 196.507 285.918C196.704 285.905 196.889 286.039 196.933 286.236C198.389 292.609 201.383 298.238 205.49 303.332C205.764 303.669 205.395 304.14 205.001 303.962C199.495 301.488 194.466 298.301 189.902 294.339C184.943 290.033 181.046 284.836 177.295 279.398C177.219 279.29 177.092 279.22 176.958 279.22C173.945 279.22 170.963 279.22 167.982 279.22C160.575 279.233 153.175 279.239 145.769 279.258C137.727 279.271 131.49 273.922 130.683 266.303C129.882 258.727 134.955 251.699 142.52 249.988C143.703 249.721 144.923 249.645 146.125 249.499C146.258 249.479 146.373 249.397 146.436 249.282C150.753 241.256 151.713 240.181 157.714 237.261C157.956 237.147 158.019 236.835 157.848 236.632C150.899 228.452 145.133 219.637 142.463 208.837C142.399 208.576 142.596 208.328 142.863 208.328C143.506 208.328 144.033 208.328 144.554 208.328C157.288 208.322 170.035 208.595 182.762 208.239C199.832 207.762 216.19 204.067 231.282 195.754C233.628 194.463 235.847 192.898 237.97 191.257C240.755 189.114 243.158 186.627 244.614 183.256C244.773 182.893 245.294 182.938 245.389 183.326C245.656 184.458 245.93 185.597 246.127 186.741C246.864 190.933 246.718 195.105 245.574 199.208C243.8 205.555 239.642 209.721 233.634 212.202C226.934 214.968 219.902 216.368 212.776 217.468C202.381 219.071 191.924 218.778 181.472 218.511C173.97 218.32 166.475 217.977 158.973 217.703L158.884 217.659L158.992 217.691L159.024 217.678Z" fill="white"/>
<path d="M209.108 194.812C212.814 192.243 215.23 188.808 216.037 184.381C216.648 181.004 216.444 177.69 214.925 174.523C211.956 168.328 205.814 164.658 199.394 165.3C191.04 166.14 187.079 170.007 184.371 180.126C179.514 174.962 173.621 171.807 166.621 170.312C166.888 169.867 167.079 169.466 167.339 169.123C173.977 160.25 182.75 154.736 193.685 153.07C211.625 150.341 225.859 156.625 236.311 171.425C237.493 173.098 238.307 175.038 239.216 176.889C239.852 178.18 239.731 179.49 239.032 180.762C237.735 183.128 235.942 185.043 233.698 186.512C226.501 191.212 218.447 193.578 210.08 195.054C209.877 195.092 209.667 195.092 209.464 195.073C209.387 195.067 209.311 194.965 209.108 194.812Z" fill="white"/>
<path d="M188.674 202.985H135.603C131.865 195.156 138.381 182.054 148.063 177.493C158.483 172.589 175.305 178.174 178.051 192.955C185.718 193.986 189.514 197.496 188.674 202.985Z" fill="white"/>
<path d="M213.049 258.257C218.243 259.09 221.67 261.901 222.999 267.028C224.054 267.028 225.027 267.015 225.993 267.028C229.159 267.079 232.414 269.604 233.253 272.637C234.232 276.187 232.02 279.1 228.148 279.214C225.357 279.297 222.56 279.227 219.763 279.227C215.052 279.227 210.341 279.227 205.637 279.22C205.026 279.22 204.422 279.163 203.831 279.138C203.57 274.8 209.184 262.035 213.049 258.257Z" fill="white"/>
<path d="M200.442 170.02C206.73 170.045 211.835 175.025 211.822 181.125C211.81 187.631 206.705 192.624 200.106 192.586C194.104 192.554 189.031 187.205 189.126 181.01C189.228 174.44 193.805 169.988 200.436 170.02H200.442Z" fill="white"/>
</g>
<path d="M92.0138 325.8C96.6218 325.8 100.718 326.664 104.302 328.392C107.886 330.12 110.894 332.552 113.326 335.688C115.822 338.76 117.678 342.344 118.894 346.44C120.174 350.472 120.814 354.792 120.814 359.4C120.814 365.608 119.694 371.272 117.454 376.392C115.214 381.448 111.95 385.48 107.662 388.488C103.438 391.496 98.2218 393 92.0138 393H69.0697C67.4057 393 65.9977 392.456 64.8457 391.368C63.7577 390.216 63.2137 388.808 63.2137 387.144V331.656C63.2137 329.992 63.7577 328.616 64.8457 327.528C65.9977 326.376 67.4057 325.8 69.0697 325.8H92.0138ZM91.0537 381.96C95.0858 381.96 98.3818 380.936 100.942 378.888C103.502 376.776 105.358 374.024 106.51 370.632C107.726 367.176 108.334 363.432 108.334 359.4C108.334 356.392 107.982 353.544 107.278 350.856C106.638 348.104 105.614 345.704 104.206 343.656C102.798 341.544 101.006 339.88 98.8297 338.664C96.6538 337.448 94.0618 336.84 91.0537 336.84H74.2537L75.2137 335.976V383.016L74.6377 381.96H91.0537ZM214.975 381.768C216.639 381.768 218.015 382.312 219.103 383.4C220.255 384.424 220.831 385.768 220.831 387.432C220.831 389.032 220.255 390.376 219.103 391.464C218.015 392.488 216.639 393 214.975 393H183.775C182.111 393 180.703 392.456 179.551 391.368C178.463 390.216 177.919 388.808 177.919 387.144V331.656C177.919 329.992 178.495 328.616 179.647 327.528C180.799 326.376 182.271 325.8 184.063 325.8C185.599 325.8 186.943 326.376 188.095 327.528C189.311 328.616 189.919 329.992 189.919 331.656V383.4L187.807 381.768H214.975ZM299.505 393.96C295.025 393.96 290.993 393.416 287.409 392.328C283.825 391.176 280.401 389.192 277.137 386.376C276.305 385.672 275.665 384.872 275.217 383.976C274.769 383.08 274.545 382.184 274.545 381.288C274.545 379.816 275.057 378.536 276.081 377.448C277.169 376.296 278.513 375.72 280.113 375.72C281.329 375.72 282.417 376.104 283.377 376.872C285.809 378.856 288.209 380.36 290.577 381.384C293.009 382.408 295.985 382.92 299.505 382.92C301.873 382.92 304.049 382.568 306.033 381.864C308.017 381.096 309.617 380.104 310.833 378.888C312.049 377.608 312.657 376.168 312.657 374.568C312.657 372.648 312.081 371.016 310.929 369.672C309.777 368.328 308.017 367.208 305.649 366.312C303.281 365.352 300.273 364.616 296.625 364.104C293.169 363.592 290.129 362.824 287.505 361.8C284.881 360.712 282.673 359.368 280.881 357.768C279.153 356.104 277.841 354.184 276.945 352.008C276.049 349.768 275.601 347.272 275.601 344.52C275.601 340.36 276.657 336.808 278.769 333.864C280.945 330.92 283.857 328.68 287.505 327.144C291.153 325.608 295.185 324.84 299.601 324.84C303.761 324.84 307.601 325.48 311.121 326.76C314.705 327.976 317.617 329.544 319.857 331.464C321.713 332.936 322.641 334.632 322.641 336.552C322.641 337.96 322.097 339.24 321.009 340.392C319.921 341.544 318.641 342.12 317.169 342.12C316.209 342.12 315.345 341.832 314.577 341.256C313.553 340.36 312.177 339.528 310.449 338.76C308.721 337.928 306.897 337.256 304.977 336.744C303.057 336.168 301.265 335.88 299.601 335.88C296.849 335.88 294.513 336.232 292.593 336.936C290.737 337.64 289.329 338.6 288.369 339.816C287.409 341.032 286.929 342.44 286.929 344.04C286.929 345.96 287.473 347.56 288.561 348.84C289.713 350.056 291.345 351.048 293.457 351.816C295.569 352.52 298.097 353.16 301.041 353.736C304.881 354.44 308.241 355.272 311.121 356.232C314.065 357.192 316.497 358.44 318.417 359.976C320.337 361.448 321.777 363.336 322.737 365.64C323.697 367.88 324.177 370.632 324.177 373.896C324.177 378.056 323.025 381.64 320.721 384.648C318.417 387.656 315.377 389.96 311.601 391.56C307.889 393.16 303.857 393.96 299.505 393.96Z" fill="white"/>
<defs>
<clipPath id="clip0_643_240">
<rect width="256" height="240" fill="white" transform="translate(64 64)"/>
</clipPath>
</defs>
</svg>
