<svg width="384" height="464" viewBox="0 0 384 464" fill="none" xmlns="http://www.w3.org/2000/svg">
<rect width="384" height="463.999" rx="16" fill="url(#paint0_linear_643_257)"/>
<path d="M319.722 117.342L150.283 286.3C160.809 290.483 172.205 293.023 184.447 293.865C185.399 293.932 186.351 293.945 187.303 293.998L302.184 179.448C301.943 173.621 301.326 167.66 300.293 161.593C315.404 150.072 321.384 133.126 319.735 117.342H319.722Z" fill="white"/>
<path d="M240.558 85.053C232.42 81.3643 224.281 78.5977 216.156 76.7534L84.166 208.37C86.6063 219.41 90.8433 230.021 96.9976 240.179L262.883 74.7754C254.945 76.1386 247.477 79.56 240.558 85.053Z" fill="white"/>
<path d="M310.267 93.4043C304.314 85.6928 296.993 80.0395 288.13 76.9121L108.528 256.001C115.675 264.341 123.599 271.317 132.261 276.957L312.747 96.9727C311.983 95.7432 311.152 94.5537 310.267 93.4043Z" fill="white"/>
<path d="M266.985 264.744C284.281 248.452 294.968 229.875 299.594 209.333L217.12 291.58C235.529 287.504 252.29 278.59 266.998 264.744H266.985Z" fill="white"/>
<path d="M191.526 74C175.449 74.0535 159.4 77.7422 143.404 85.0661C141.942 83.89 140.441 82.8342 138.912 81.8585L71.791 148.79C74.8347 153.467 78.7901 157.811 83.7377 161.607C82.4103 169.064 81.713 176.388 81.646 183.578L191.526 74Z" fill="white"/>
<path d="M74.0291 92.818C66.239 102.788 62.7261 115.926 64.4155 128.823L118.866 74.5349C102.119 72.3431 84.9165 78.9186 74.0291 92.818Z" fill="white"/>
<path d="M73.9832 336.844C76.7365 336.844 79.1948 337.552 81.3582 338.968C83.5608 340.345 85.2915 342.252 86.5502 344.691C87.8482 347.13 88.4972 349.962 88.4972 353.187C88.4972 356.412 87.8482 359.264 86.5502 361.742C85.2915 364.181 83.5805 366.108 81.4172 367.524C79.2932 368.901 76.8938 369.589 74.2192 369.589C72.6458 369.589 71.1708 369.333 69.7942 368.822C68.4175 368.311 67.1982 367.662 66.1362 366.875C65.1135 366.088 64.3072 365.302 63.7172 364.515C63.1665 363.689 62.8912 363.001 62.8912 362.45L64.7202 361.683V377.2C64.7202 378.223 64.3858 379.068 63.7172 379.737C63.0485 380.445 62.2028 380.799 61.1802 380.799C60.1575 380.799 59.3118 380.465 58.6432 379.796C57.9745 379.127 57.6402 378.262 57.6402 377.2V341.033C57.6402 340.01 57.9745 339.165 58.6432 338.496C59.3118 337.788 60.1575 337.434 61.1802 337.434C62.2028 337.434 63.0485 337.788 63.7172 338.496C64.3858 339.165 64.7202 340.01 64.7202 341.033V343.924L63.7172 343.393C63.7172 342.882 63.9925 342.272 64.5432 341.564C65.0938 340.817 65.8412 340.089 66.7852 339.381C67.7292 338.634 68.8108 338.024 70.0302 337.552C71.2888 337.08 72.6065 336.844 73.9832 336.844ZM73.0982 343.334C71.3675 343.334 69.8532 343.767 68.5552 344.632C67.2572 345.497 66.2345 346.677 65.4872 348.172C64.7792 349.627 64.4252 351.299 64.4252 353.187C64.4252 355.036 64.7792 356.727 65.4872 358.261C66.2345 359.756 67.2572 360.936 68.5552 361.801C69.8532 362.666 71.3675 363.099 73.0982 363.099C74.8288 363.099 76.3235 362.666 77.5822 361.801C78.8802 360.936 79.8832 359.756 80.5912 358.261C81.3385 356.727 81.7122 355.036 81.7122 353.187C81.7122 351.299 81.3385 349.627 80.5912 348.172C79.8832 346.677 78.8802 345.497 77.5822 344.632C76.3235 343.767 74.8288 343.334 73.0982 343.334ZM102.358 365.4C102.358 366.423 102.004 367.288 101.296 367.996C100.627 368.665 99.7817 368.999 98.759 368.999C97.7757 368.999 96.9497 368.665 96.281 367.996C95.6124 367.288 95.278 366.423 95.278 365.4V328.938C95.278 327.915 95.6124 327.07 96.281 326.401C96.989 325.693 97.8544 325.339 98.877 325.339C99.8997 325.339 100.726 325.693 101.355 326.401C102.024 327.07 102.358 327.915 102.358 328.938V365.4ZM133.725 337.434C134.748 337.434 135.594 337.788 136.262 338.496C136.931 339.165 137.265 340.01 137.265 341.033V356.019C137.265 360.188 136.105 363.492 133.784 365.931C131.464 368.37 128.12 369.589 123.754 369.589C119.388 369.589 116.045 368.37 113.724 365.931C111.443 363.492 110.302 360.188 110.302 356.019V341.033C110.302 340.01 110.637 339.165 111.305 338.496C111.974 337.788 112.82 337.434 113.842 337.434C114.865 337.434 115.711 337.788 116.379 338.496C117.048 339.165 117.382 340.01 117.382 341.033V356.019C117.382 358.418 117.913 360.208 118.975 361.388C120.037 362.529 121.63 363.099 123.754 363.099C125.918 363.099 127.53 362.529 128.592 361.388C129.654 360.208 130.185 358.418 130.185 356.019V341.033C130.185 340.01 130.52 339.165 131.188 338.496C131.857 337.788 132.703 337.434 133.725 337.434ZM161.509 336.844C164.656 336.844 166.977 337.611 168.471 339.145C169.966 340.64 170.949 342.587 171.421 344.986L170.418 344.455L170.89 343.511C171.362 342.606 172.09 341.643 173.073 340.62C174.057 339.558 175.237 338.673 176.613 337.965C178.029 337.218 179.603 336.844 181.333 336.844C184.165 336.844 186.309 337.454 187.764 338.673C189.259 339.892 190.282 341.525 190.832 343.57C191.383 345.576 191.658 347.818 191.658 350.296V365.4C191.658 366.423 191.324 367.288 190.655 367.996C189.987 368.665 189.141 368.999 188.118 368.999C187.096 368.999 186.25 368.665 185.581 367.996C184.913 367.288 184.578 366.423 184.578 365.4V350.296C184.578 348.998 184.421 347.838 184.106 346.815C183.792 345.753 183.221 344.907 182.395 344.278C181.569 343.649 180.389 343.334 178.855 343.334C177.361 343.334 176.082 343.649 175.02 344.278C173.958 344.907 173.152 345.753 172.601 346.815C172.09 347.838 171.834 348.998 171.834 350.296V365.4C171.834 366.423 171.5 367.288 170.831 367.996C170.163 368.665 169.317 368.999 168.294 368.999C167.272 368.999 166.426 368.665 165.757 367.996C165.089 367.288 164.754 366.423 164.754 365.4V350.296C164.754 348.998 164.597 347.838 164.282 346.815C163.968 345.753 163.397 344.907 162.571 344.278C161.745 343.649 160.565 343.334 159.031 343.334C157.537 343.334 156.258 343.649 155.196 344.278C154.134 344.907 153.328 345.753 152.777 346.815C152.266 347.838 152.01 348.998 152.01 350.296V365.4C152.01 366.423 151.676 367.288 151.007 367.996C150.339 368.665 149.493 368.999 148.47 368.999C147.448 368.999 146.602 368.665 145.933 367.996C145.265 367.288 144.93 366.423 144.93 365.4V341.033C144.93 340.01 145.265 339.165 145.933 338.496C146.602 337.788 147.448 337.434 148.47 337.434C149.493 337.434 150.339 337.788 151.007 338.496C151.676 339.165 152.01 340.01 152.01 341.033V343.57L151.125 343.393C151.479 342.724 151.971 342.016 152.6 341.269C153.23 340.482 153.997 339.755 154.901 339.086C155.806 338.417 156.809 337.886 157.91 337.493C159.012 337.06 160.211 336.844 161.509 336.844ZM215.664 336.844C218.417 336.844 220.876 337.552 223.039 338.968C225.242 340.345 226.972 342.252 228.231 344.691C229.529 347.13 230.178 349.962 230.178 353.187C230.178 356.412 229.529 359.264 228.231 361.742C226.972 364.181 225.261 366.108 223.098 367.524C220.974 368.901 218.575 369.589 215.9 369.589C214.327 369.589 212.852 369.333 211.475 368.822C210.098 368.311 208.879 367.662 207.817 366.875C206.794 366.088 205.988 365.302 205.398 364.515C204.847 363.689 204.572 363.001 204.572 362.45L206.401 361.683V365.99C206.401 367.013 206.067 367.878 205.398 368.586C204.729 369.255 203.884 369.589 202.861 369.589C201.838 369.589 200.993 369.255 200.324 368.586C199.655 367.917 199.321 367.052 199.321 365.99V328.938C199.321 327.915 199.655 327.07 200.324 326.401C200.993 325.693 201.838 325.339 202.861 325.339C203.884 325.339 204.729 325.693 205.398 326.401C206.067 327.07 206.401 327.915 206.401 328.938V343.924L205.398 343.393C205.398 342.882 205.673 342.272 206.224 341.564C206.775 340.817 207.522 340.089 208.466 339.381C209.41 338.634 210.492 338.024 211.711 337.552C212.97 337.08 214.287 336.844 215.664 336.844ZM214.779 343.334C213.048 343.334 211.534 343.767 210.236 344.632C208.938 345.497 207.915 346.677 207.168 348.172C206.46 349.627 206.106 351.299 206.106 353.187C206.106 355.036 206.46 356.727 207.168 358.261C207.915 359.756 208.938 360.936 210.236 361.801C211.534 362.666 213.048 363.099 214.779 363.099C216.51 363.099 218.004 362.666 219.263 361.801C220.561 360.936 221.564 359.756 222.272 358.261C223.019 356.727 223.393 355.036 223.393 353.187C223.393 351.299 223.019 349.627 222.272 348.172C221.564 346.677 220.561 345.497 219.263 344.632C218.004 343.767 216.51 343.334 214.779 343.334ZM251.237 369.589C247.893 369.589 244.983 368.901 242.505 367.524C240.066 366.108 238.178 364.2 236.841 361.801C235.543 359.402 234.894 356.688 234.894 353.659C234.894 350.119 235.602 347.11 237.018 344.632C238.473 342.115 240.361 340.187 242.682 338.85C245.002 337.513 247.461 336.844 250.057 336.844C252.063 336.844 253.951 337.257 255.721 338.083C257.53 338.909 259.123 340.05 260.5 341.505C261.876 342.921 262.958 344.573 263.745 346.461C264.571 348.349 264.984 350.355 264.984 352.479C264.944 353.423 264.571 354.19 263.863 354.78C263.155 355.37 262.329 355.665 261.385 355.665H238.847L237.077 349.765H258.73L257.432 350.945V349.352C257.353 348.211 256.94 347.189 256.193 346.284C255.485 345.379 254.58 344.671 253.479 344.16C252.417 343.609 251.276 343.334 250.057 343.334C248.877 343.334 247.775 343.491 246.753 343.806C245.73 344.121 244.845 344.652 244.098 345.399C243.35 346.146 242.76 347.149 242.328 348.408C241.895 349.667 241.679 351.26 241.679 353.187C241.679 355.311 242.111 357.12 242.977 358.615C243.881 360.07 245.022 361.191 246.399 361.978C247.815 362.725 249.309 363.099 250.883 363.099C252.338 363.099 253.498 362.981 254.364 362.745C255.229 362.509 255.917 362.234 256.429 361.919C256.979 361.565 257.471 361.27 257.904 361.034C258.612 360.68 259.28 360.503 259.91 360.503C260.775 360.503 261.483 360.798 262.034 361.388C262.624 361.978 262.919 362.666 262.919 363.453C262.919 364.515 262.368 365.479 261.267 366.344C260.244 367.209 258.808 367.976 256.96 368.645C255.111 369.274 253.203 369.589 251.237 369.589ZM297.242 336.844C298.265 336.844 299.11 337.178 299.779 337.847C300.448 338.516 300.782 339.381 300.782 340.443V365.4C300.782 366.423 300.448 367.288 299.779 367.996C299.11 368.665 298.265 368.999 297.242 368.999C296.219 368.999 295.374 368.665 294.705 367.996C294.036 367.288 293.702 366.423 293.702 365.4V362.509L295 363.04C295 363.551 294.725 364.181 294.174 364.928C293.623 365.636 292.876 366.344 291.932 367.052C290.988 367.76 289.867 368.37 288.569 368.881C287.31 369.353 285.934 369.589 284.439 369.589C281.725 369.589 279.267 368.901 277.064 367.524C274.861 366.108 273.111 364.181 271.813 361.742C270.554 359.264 269.925 356.432 269.925 353.246C269.925 350.021 270.554 347.189 271.813 344.75C273.111 342.272 274.842 340.345 277.005 338.968C279.168 337.552 281.568 336.844 284.203 336.844C285.894 336.844 287.448 337.1 288.864 337.611C290.28 338.122 291.499 338.771 292.522 339.558C293.584 340.345 294.39 341.151 294.941 341.977C295.531 342.764 295.826 343.432 295.826 343.983L293.702 344.75V340.443C293.702 339.42 294.036 338.575 294.705 337.906C295.374 337.198 296.219 336.844 297.242 336.844ZM285.324 363.099C287.055 363.099 288.569 362.666 289.867 361.801C291.165 360.936 292.168 359.756 292.876 358.261C293.623 356.766 293.997 355.095 293.997 353.246C293.997 351.358 293.623 349.667 292.876 348.172C292.168 346.677 291.165 345.497 289.867 344.632C288.569 343.767 287.055 343.334 285.324 343.334C283.633 343.334 282.138 343.767 280.84 344.632C279.542 345.497 278.519 346.677 277.772 348.172C277.064 349.667 276.71 351.358 276.71 353.246C276.71 355.095 277.064 356.766 277.772 358.261C278.519 359.756 279.542 360.936 280.84 361.801C282.138 362.666 283.633 363.099 285.324 363.099ZM311.988 368.999C310.965 368.999 310.119 368.665 309.451 367.996C308.782 367.288 308.448 366.423 308.448 365.4V341.033C308.448 340.01 308.782 339.165 309.451 338.496C310.119 337.788 310.965 337.434 311.988 337.434C313.01 337.434 313.856 337.788 314.525 338.496C315.193 339.165 315.528 340.01 315.528 341.033V346.579L315.115 342.626C315.547 341.682 316.098 340.856 316.767 340.148C317.475 339.401 318.261 338.791 319.127 338.319C319.992 337.808 320.916 337.434 321.9 337.198C322.883 336.962 323.866 336.844 324.85 336.844C326.03 336.844 327.013 337.178 327.8 337.847C328.626 338.516 329.039 339.302 329.039 340.207C329.039 341.505 328.704 342.449 328.036 343.039C327.367 343.59 326.639 343.865 325.853 343.865C325.105 343.865 324.417 343.727 323.788 343.452C323.198 343.177 322.509 343.039 321.723 343.039C321.015 343.039 320.287 343.216 319.54 343.57C318.832 343.885 318.163 344.396 317.534 345.104C316.944 345.812 316.452 346.697 316.059 347.759C315.705 348.782 315.528 350.001 315.528 351.417V365.4C315.528 366.423 315.193 367.288 314.525 367.996C313.856 368.665 313.01 368.999 311.988 368.999Z" fill="white"/>
<defs>
<linearGradient id="paint0_linear_643_257" x1="7.22932" y1="463.999" x2="467.501" y2="341.832" gradientUnits="userSpaceOnUse">
<stop stop-color="#6B0671"/>
<stop offset="1" stop-color="#D1158E"/>
</linearGradient>
</defs>
</svg>
